<svg id="Layer_7" data-name="Layer 7" xmlns="http://www.w3.org/2000/svg" viewBox="0 0 453 453"><defs><style>.cls-1{fill:#3d6637;}</style></defs><path class="cls-1" d="M1168.7,451.83A227.27,227.27,0,1,0,1186.5,540,225.77,225.77,0,0,0,1168.7,451.83Zm-59.36,237.51a211.2,211.2,0,1,1,61.72-157H1013c-5.46-15.62-27-26.43-53-26.43-30.49,0-54.37,15-54.37,34.08s23.88,34.08,54.37,34.08c26,0,47.58-10.81,53-26.43h158A210.13,210.13,0,0,1,1109.34,689.34ZM999.07,540c0,8.87-16.71,18.79-39.07,18.79s-39.07-9.92-39.07-18.79,16.71-18.79,39.07-18.79S999.07,531.13,999.07,540ZM954.18,658.85a119,119,0,0,1,0-237.7A7.65,7.65,0,0,0,959.12,408a7.51,7.51,0,0,0-5.6-2.09,134.75,134.75,0,0,0-124.1,102.76,31.62,31.62,0,0,0,0,62.74,134.75,134.75,0,0,0,124.1,102.76h.37a7.53,7.53,0,0,0,5.23-2.1,7.65,7.65,0,0,0-4.94-13.19Zm-127.65-104a16.31,16.31,0,0,1,0-29.64,134.33,134.33,0,0,0,0,29.64Z" transform="translate(-733.5 -313.5)"/></svg>