<svg xmlns="http://www.w3.org/2000/svg" xmlns:xlink="http://www.w3.org/1999/xlink" xmlns:fi="http://pattern.flaticon.com/" x="0" y="0" width="350" height="350" viewBox="0 0 350 350"><rect x="0px" y="0px" width="100%" height="100%" opacity="1" fill="#3d6637"/><defs><g transform="matrix(0.058118365705013275 0 0 0.058118365705013275 117.09223995730281 45.0331705249846)" id="L1_43"><path d="m380.589844 204.039062 30.082031-1.90625c.050781-.003906.105469-.007812.160156-.011718 21.4375-1.808594 40.679688-13.039063 52.796875-30.820313l23.78125-34.890625c20.699219-30.375 28.71875-67.0625 22.574219-103.300781-1.207031-7.117187-4.847656-13.675781-10.246094-18.460937-5.402343-4.789063-12.347656-7.617188-19.558593-7.960938-36.726563-1.757812-72.175782 10.605469-99.847657 34.796875l-31.789062 27.792969c-16.199219 14.160156-25.042969 34.609375-24.269531 56.113281.003906.050781.003906.105469.007812.160156l1.714844 30.089844c.667968 11.730469-3.632813 23.304687-11.777344 31.734375l-248.351562 255.132812c-6.648438 6.933594-10.082032 16.445313-9.664063 26.785157.460937 11.382812 5.683594 22.5625 13.972656 29.910156 7.488281 6.636719 17.78125 10.417969 28.070313 10.417969 1.101562 0 2.203125-.042969 3.300781-.132813 10.316406-.824219 19.351563-5.371093 25.46875-12.847656l223.464844-277.085937c7.410156-9.117188 18.386719-14.773438 30.109375-15.515626zm-42.039063 5.859376-223.445312 277.0625c-3.414063 4.171874-8.664063 6.742187-14.78125 7.230468-7.277344.582032-14.738281-1.839844-19.964844-6.472656-5.226563-4.636719-8.523437-11.753906-8.816406-19.046875-.25-6.128906 1.667969-11.648437 5.363281-15.5l248.332031-255.113281c11.132813-11.519532 16.992188-27.296875 16.085938-43.289063l-1.714844-30.011719c-.582031-16.832031 6.351563-32.835937 19.035156-43.925781l31.789063-27.792969c24.671875-21.566406 56.289062-32.578124 89.015625-31.023437 3.726562.179687 7.3125 1.640625 10.105469 4.117187 2.792968 2.472657 4.671874 5.863282 5.296874 9.539063 5.476563 32.308594-1.671874 65.011719-20.125 92.089844l-23.78125 34.894531c-9.488281 13.921875-24.546874 22.722656-41.328124 24.164062l-30 1.898438c-15.984376 1.015625-30.945313 8.726562-41.066407 21.179688zm0 0" fill="#d6ba78"/><path d="m497.820312 440.570312-166.519531-151.667968c-3.132812-2.855469-7.984375-2.628906-10.84375.503906-2.851562 3.132812-2.625 7.988281.507813 10.84375l166.476562 151.632812c3.960938 3.660157 6.207032 9.054688 6.328125 15.1875.144531 7.296876-2.71875 14.597657-7.660156 19.539063-4.9375 4.9375-12.226563 7.808594-19.539063 7.660156-6.132812-.121093-11.527343-2.367187-15.148437-6.285156l-148.382813-162.90625c-2.855468-3.136719-7.710937-3.359375-10.84375-.507813-3.132812 2.855469-3.359374 7.710938-.503906 10.84375l148.417969 162.945313c6.523437 7.054687 15.8125 11.054687 26.160156 11.257813.269531.003906.535157.007812.804688.007812 11.121093 0 22.242187-4.511719 29.886719-12.160156 7.835937-7.835938 12.378906-19.308594 12.152343-30.695313-.203125-10.347656-4.199219-19.636719-11.292969-26.199219zm0 0" fill="#d6ba78"/><path d="m92.609375 202.585938c12.703125 11.703124 29.207031 18.375 46.472656 18.789062.054688.003906.109375.003906.160157.003906l30.140624.09375c11.75.035156 23.042969 5.023438 30.96875 13.660156l13.277344 14.574219c1.515625 1.664063 3.589844 2.507813 5.675782 2.507813 1.84375 0 3.695312-.660156 5.164062-2 3.136719-2.855469 3.363281-7.710938.507812-10.84375l-13.296874-14.59375c-10.828126-11.804688-26.226563-18.601563-42.246094-18.65625l-30.058594-.09375c-13.355469-.339844-26.125-5.453125-36.019531-14.410156l-87.347657-103.835938c-.890624-1.0625-.824218-2.601562.15625-3.582031.671876-.675781 1.460938-.773438 1.871094-.773438s1.199219.097657 1.875.773438l79.507813 79.511719c7.859375 7.859374 20.648437 7.859374 28.507812-.003907l9.34375-9.339843v-.003907l16.589844-16.589843s.003906 0 .003906-.003907c0 0 .003907-.003906.003907-.003906l9.339843-9.339844c7.859375-7.859375 7.859375-20.648437 0-28.507812l-79.507812-79.507813c-1.03125-1.03125-1.03125-2.714844 0-3.746094.980469-.980468 2.519531-1.046874 3.582031-.15625l103.835938 87.351563c8.960937 9.890625 14.074218 22.664063 14.414062 36.015625l.089844 30.0625c.054687 16.015625 6.855468 31.414062 18.675781 42.265625l14.226563 12.957031c3.136718 2.855469 7.988281 2.628906 10.84375-.503906 2.851562-3.136719 2.625-7.988281-.507813-10.84375l-14.203125-12.9375c-8.660156-7.945312-13.644531-19.242188-13.683594-30.988281l-.09375-30.140625c0-.054688 0-.109375-.003906-.164063-.414062-17.265625-7.085938-33.769531-18.789062-46.472656-.21875-.238281-.453126-.464844-.703126-.675781l-104.222656-87.671875c-7.203125-6.0625-17.65625-5.609375-24.3125 1.046875-7.019531 7.019531-7.019531 18.4375 0 25.453125l79.507813 79.511719c1.875 1.875 1.875 4.925781 0 6.800781l-3.917969 3.914062-88.613281-88.609375c-2.996094-3-7.855469-3-10.851563 0-2.996094 2.996094-2.996094 7.855469 0 10.851563l88.613282 88.613281-5.742188 5.738281-88.613281-88.609375c-2.996094-2.996094-7.855469-2.996094-10.851563 0-3 2.996094-3 7.855469 0 10.851563l88.609375 88.613281-3.914062 3.917969c-1.875 1.875-4.925781 1.875-6.800781 0l-79.511719-79.507813c-3.398438-3.398437-7.917969-5.273437-12.726563-5.273437s-9.328125 1.875-12.726562 5.273437c-6.65625 6.65625-7.105469 17.109375-1.046875 24.316406l87.675781 104.21875c.207031.25.433594.484376.671875.703126zm0 0" fill="#d6ba78"/></g><g transform="matrix(0.0608307421207428 0 0 0.0608307421207428 286.4267906895036 207.42727096009014)" id="L1_44"><path d="M503.45,324.28H8.55c-4.71,0-8.533,3.814-8.533,8.533c0,98.801,80.379,179.188,179.188,179.188h153.59    c98.801,0,179.188-80.387,179.188-179.188C511.983,328.094,508.169,324.28,503.45,324.28z M332.795,494.935h-153.59    c-86.531,0-157.447-68.143-161.901-153.59h477.391C490.242,426.792,419.326,494.935,332.795,494.935z" fill="#bee0af"/><path d="M435.223,119.545c0-0.623-0.009-1.246-0.068-2.193c-1.314-14.147-11.041-25.769-23.883-30.129l9.659-9.659    c16.75-16.408,18.431-42.655,3.771-61.188c-15.7-19.079-43.995-21.793-63.066-6.101c-1.084,0.896-2.133,1.843-3.183,2.893    l-10.495,10.649c-4.403-12.774-16.05-22.433-30.402-23.764c-18.9-1.032-34.899,13.473-35.914,32.262    c-0.034,0.623-0.043,1.246-0.043,1.86v13.081c-5.017-2.91-10.828-4.582-17.031-4.591c-0.614,0-1.246,0.017-2.193,0.068    c-18.243,1.698-32.279,17.373-31.972,35.547v11.605c-5.12-2.961-10.956-4.548-17.031-4.557c-0.614,0-1.237,0.017-2.184,0.068    c-18.252,1.698-32.288,17.373-31.981,35.548v126.541c0,4.719,3.823,8.533,8.533,8.533h145.057    c18.823,0,34.131-15.308,34.122-34.114c0-6.212-1.664-12.04-4.582-17.065h11.528c18.328,0.503,34.003-13.738,35.718-32.314    c0.367-6.946-1.374-13.516-4.667-19.096c7.662-0.853,14.753-4.241,20.282-9.753C431.647,137.242,435.214,128.675,435.223,119.545z     M413.148,131.593c-3.225,3.208-7.5,4.975-12.065,4.975c-0.009,0-0.017,0-0.026,0h-25.598c-4.719,0-8.533,3.823-8.533,8.533    s3.814,8.533,8.533,8.533l0.939,0.026c9.403,0.503,16.639,8.558,16.161,17.62c-0.87,9.403-8.848,16.682-18.55,16.485h-41.213    c-4.719,0-8.533,3.823-8.533,8.533s3.814,8.533,8.533,8.533c9.412,0,17.066,7.654,17.066,17.066s-7.654,17.066-17.066,17.066    H196.271V120.799c-0.162-9.446,7.091-17.526,16.161-18.38l0.93-0.026c9.395,0.008,17.031,7.654,17.04,17.04v0.06    c0,4.71,3.814,8.533,8.524,8.533c0.009,0,0.009,0,0.009,0c4.71,0,8.524-3.814,8.533-8.524v-0.008V78.135    c-0.162-9.446,7.091-17.526,16.161-18.38l0.922-0.026c9.403,0.017,17.04,7.662,17.049,17.057v0.051    c0,4.71,3.814,8.533,8.524,8.533c0.009,0,0.009,0,0.009,0c4.71,0,8.524-3.814,8.533-8.524v-0.009V34.174l0.026-0.947    c0.495-9.395,8.362-16.63,17.612-16.161c9.42,0.879,16.664,8.959,16.485,18.567v7.082c0,3.456,2.091,6.579,5.299,7.893    c3.183,1.314,6.886,0.563,9.309-1.911l23.149-23.491c0.631-0.623,1.28-1.212,1.954-1.766c11.809-9.71,29.31-8.021,38.935,3.652    c9.113,11.536,8.063,27.987-2.5,38.338l-22.441,22.441c-2.44,2.44-3.174,6.109-1.852,9.301c1.314,3.183,4.437,5.265,7.884,5.265    h7.082c0.179,0,0.307,0,0.452,0c9.318,0,17.236,7.185,18.072,16.161l0.026,0.939C418.148,124.093,416.374,128.376,413.148,131.593    z" fill="#bee0af"/><rect x="87px" y="170px" width="337px" height="17px" transform="matrix(0.7071 -0.7071 0.7071 0.7071 -51.7312 233.5161)" fill="#bee0af"/><rect x="315px" y="68px" width="17px" height="42px" fill="#bee0af"/><rect x="264px" y="111px" width="17px" height="51px" fill="#bee0af"/><rect x="213px" y="153px" width="17px" height="59px" fill="#bee0af"/><rect x="324px" y="102px" width="42px" height="17px" fill="#bee0af"/><rect x="273px" y="153px" width="51px" height="17px" fill="#bee0af"/><rect x="221px" y="204px" width="59px" height="17px" fill="#bee0af"/><path d="M159.281,39.473c-0.008-0.017-0.026-0.034-0.034-0.051c-12.04-18.03-36.512-22.928-54.533-10.888    c-0.563,0.367-1.118,0.759-1.749,1.229l-3.072,2.338l-2.952-2.125C81.326,15.411,56.777,16,41.913,31.427    c-7.278,7.543-11.186,17.475-10.99,27.962c0.196,10.487,4.454,20.265,11.989,27.535c2.193,2.116,4.633,3.976,7.261,5.529    l7.185,5.615v4.369c0,23.525,19.139,42.664,42.664,42.664s42.664-19.148,42.655-42.672v-4.369l7.552-5.896    C166.568,79.765,170.536,56.616,159.281,39.473z M139.818,78.647l-10.922,8.533c-2.065,1.613-3.277,4.096-3.277,6.724v8.533    c0,14.113-11.485,25.598-25.598,25.598c-14.113,0-25.598-11.485-25.598-25.598v-8.533c0-2.628-1.203-5.111-3.277-6.724    l-10.922-8.533c-0.324-0.256-0.674-0.486-1.032-0.691c-1.604-0.913-3.089-2.022-4.42-3.311c-4.266-4.113-6.673-9.642-6.784-15.564    c-0.111-5.922,2.099-11.536,6.212-15.803c4.343-4.505,10.154-6.775,15.973-6.775c5.546,0,11.101,2.056,15.402,6.212    c0.29,0.273,0.597,0.538,0.93,0.776l8.533,6.144c3.038,2.193,7.159,2.142,10.146-0.128l8.994-6.766    c4.949-3.311,10.879-4.471,16.716-3.319c5.819,1.16,10.845,4.514,14.147,9.446C151.372,58.544,149.119,71.582,139.818,78.647z" fill="#bee0af"/><rect x="187px" y="8px" width="17px" height="17px" fill="#bee0af"/><rect x="238px" y="281px" width="17px" height="17px" fill="#bee0af"/><path d="M460.787,51.24v17.066c9.412,0,17.066,7.654,17.066,17.065s-7.654,17.066-17.066,17.066v17.065    c18.823,0,34.131-15.308,34.131-34.131C494.918,66.548,479.61,51.24,460.787,51.24z" fill="#bee0af"/><rect x="17px" y="128px" width="17px" height="17px" fill="#bee0af"/><rect x="0px" y="93px" width="17px" height="17px" fill="#bee0af"/><path d="M332.795,273.083c-18.823,0-34.131,15.308-34.131,34.131h17.066c0-9.412,7.654-17.066,17.065-17.066    c9.412,0,17.066,7.654,17.066,17.066h17.065C366.926,288.391,351.618,273.083,332.795,273.083z" fill="#bee0af"/><path d="M102.411,196.288h-1.075C97.53,181.586,84.159,170.69,68.28,170.69s-29.259,10.896-33.056,25.598h-1.075    c-18.823,0-34.131,15.308-34.131,34.131c0,18.823,15.308,34.131,34.131,34.131h68.262c18.823,0,34.131-15.308,34.131-34.131    C136.542,211.596,121.234,196.288,102.411,196.288z M102.411,247.493H34.148c-9.412,0-17.066-7.654-17.066-17.065    c0-9.412,7.654-17.066,17.066-17.066h8.533c4.71,0,8.533-3.823,8.533-8.533c0-9.412,7.654-17.065,17.066-17.065    s17.066,7.654,17.066,17.065c0,4.71,3.823,8.533,8.533,8.533h8.533c9.412,0,17.066,7.654,17.066,17.066    C119.476,239.84,111.822,247.493,102.411,247.493z" fill="#bee0af"/><path d="M85.345,247.485H51.214c-4.71,0-8.533,3.823-8.533,8.533v34.131c0,4.719,3.823,8.533,8.533,8.533h34.131    c4.71,0,8.533-3.814,8.533-8.533v-34.131C93.878,251.308,90.055,247.485,85.345,247.485z M76.812,281.616H59.747v-17.065h17.066    V281.616z" fill="#bee0af"/><path d="M452.254,221.887c-14.113,0-25.598,11.485-25.598,25.598s11.485,25.598,25.598,25.598    c14.113,0,25.598-11.485,25.598-25.598S466.367,221.887,452.254,221.887z M452.254,256.026c-4.71,0-8.533-3.831-8.533-8.533    c0-4.702,3.823-8.533,8.533-8.533s8.533,3.823,8.533,8.533C460.787,252.204,456.964,256.026,452.254,256.026z" fill="#bee0af"/><path d="M452.254,187.756c-32.928,0-59.729,26.793-59.729,59.729s26.801,59.729,59.729,59.729    c32.928,0,59.729-26.793,59.729-59.729S485.182,187.756,452.254,187.756z M452.254,290.157c-23.525,0-42.664-19.147-42.664-42.664    c0-23.525,19.139-42.664,42.664-42.664c23.525,0,42.664,19.139,42.664,42.664C494.918,271.018,475.779,290.157,452.254,290.157z" fill="#bee0af"/></g></defs><g fi:class="KUsePattern"><pattern id="pattern_L1_44" width="350" height="350" patternUnits="userSpaceOnUse"><use xlink:href="#L1_44" x="-350" y="-350"/><use xlink:href="#L1_44" x="0" y="-350"/><use xlink:href="#L1_44" x="350" y="-350"/><use xlink:href="#L1_44" x="-350" y="0"/><use xlink:href="#L1_44" x="0" y="0"/><use xlink:href="#L1_44" x="350" y="0"/><use xlink:href="#L1_44" x="-350" y="350"/><use xlink:href="#L1_44" x="0" y="350"/><use xlink:href="#L1_44" x="350" y="350"/></pattern><rect x="0" y="0" width="100%" height="100%" fill="url(#pattern_L1_44)"/></g><g fi:class="KUsePattern" opacity="1"><pattern id="pattern_L1_43" width="350" height="350" patternUnits="userSpaceOnUse"><use xlink:href="#L1_43" x="-350" y="-350"/><use xlink:href="#L1_43" x="0" y="-350"/><use xlink:href="#L1_43" x="350" y="-350"/><use xlink:href="#L1_43" x="-350" y="0"/><use xlink:href="#L1_43" x="0" y="0"/><use xlink:href="#L1_43" x="350" y="0"/><use xlink:href="#L1_43" x="-350" y="350"/><use xlink:href="#L1_43" x="0" y="350"/><use xlink:href="#L1_43" x="350" y="350"/></pattern><rect x="0" y="0" width="100%" height="100%" fill="url(#pattern_L1_43)"/></g></svg>