<svg id="Layer_1" data-name="Layer 1" xmlns="http://www.w3.org/2000/svg" xmlns:xlink="http://www.w3.org/1999/xlink" viewBox="0 0 1920 970.9"><defs><style>.cls-1{fill:#ebeedf;}.cls-2{fill:url(#linear-gradient);}.cls-3{fill:url(#linear-gradient-2);}.cls-4{fill:url(#linear-gradient-3);}.cls-5,.cls-6,.cls-7{fill:none;stroke-miterlimit:10;stroke-width:0.25px;}.cls-5{stroke:#ff6f3b;}.cls-6{stroke:#9da090;}.cls-7{stroke:#3d6637;}.cls-8{fill:url(#linear-gradient-4);}</style><linearGradient id="linear-gradient" x1="960" y1="948.58" x2="960" y2="245.51" gradientUnits="userSpaceOnUse"><stop offset="0.47" stop-color="#dee2cf"/><stop offset="0.81" stop-color="#e6e9d8"/><stop offset="0.98" stop-color="#ebeedf"/></linearGradient><linearGradient id="linear-gradient-2" x1="960" y1="1022.58" x2="960" y2="319.51" xlink:href="#linear-gradient"/><linearGradient id="linear-gradient-3" x1="960" y1="1216.94" x2="960" y2="513.87" gradientUnits="userSpaceOnUse"><stop offset="0.43" stop-color="#dee2cf"/><stop offset="0.81" stop-color="#e6e9d8"/><stop offset="0.99" stop-color="#ebeedf"/></linearGradient><linearGradient id="linear-gradient-4" x1="960" y1="1398.82" x2="960" y2="695.75" gradientUnits="userSpaceOnUse"><stop offset="0.66" stop-color="#dee2cf"/><stop offset="0.88" stop-color="#e6e9d8"/><stop offset="0.99" stop-color="#ebeedf"/></linearGradient></defs><rect class="cls-1" width="1920" height="970.86"/><path class="cls-2" d="M2567.2,296.8c-75.3-15.1-71.9-49.5-148.6-49.5s-76.8,50-153.6,50-76.7-50-153.5-50-76.7,50-153.5,50-76.8-50-153.5-50-76.8,50-153.6,50-76.7-50-153.5-50-76.8,50-153.5,50-76.8-50-153.6-50-76.7,50-153.5,50-76.8-50-153.5-50-76.8,50-153.6,50-76.7-50-153.5-50-76.8,50-153.5,50-76.8-50-153.6-50-76.7,50-153.5,50-76.8-50-153.5-50-76.8,50-153.6,50-76.8-50-153.5-50-76.8,50-153.6,50-83.2-64.6-158.4-49.5c-15.2,3.1,29.9,40,29.9,55.4s-50,15.5-50,31,50,15.4,50,30.9-50,15.4-50,30.9,50,15.5,50,30.9-50,15.5-50,31,50,15.4,50,30.9-50,15.4-50,30.9,50,15.5,50,30.9-50,15.5-50,31,50,15.4,50,30.9-50,15.4-50,30.9,50,15.5,50,30.9-50,15.5-50,31,50,15.4,50,30.9-50,15.4-50,30.9,50,15.5,50,30.9-50,15.5-50,31,50,15.4,50,30.9-50,15.5-50,30.9,14.8,3.4,29.9,6.5c75.3,15.1,71.9,49.5,148.6,49.5s76.8-50,153.6-50,76.7,50,153.5,50,76.7-50,153.5-50,76.8,50,153.5,50,76.8-50,153.6-50,76.7,50,153.5,50,76.8-50,153.5-50,76.8,50,153.6,50,76.7-50,153.5-50,76.8,50,153.5,50,76.8-50,153.6-50,76.7,50,153.5,50,76.8-50,153.5-50,76.8,50,153.6,50,76.7-50,153.5-50,76.8,50,153.5,50,76.8-50,153.6-50,76.8,50,153.5,50,76.8-50,153.6-50,83.2,64.6,158.4,49.5c15.2-3.1-29.9-40-29.9-55.5s50-15.4,50-30.9-50-15.4-50-30.9,50-15.5,50-30.9-50-15.5-50-30.9,50-15.5,50-31-50-15.4-50-30.9,50-15.5,50-30.9-50-15.5-50-30.9,50-15.5,50-31-50-15.4-50-30.9,50-15.5,50-30.9-50-15.5-50-30.9,50-15.5,50-31-50-15.4-50-30.9,50-15.5,50-30.9-50-15.5-50-31,50-15.4,50-30.9-50-15.4-50-30.9,44.5-9,49-23.8C2598.1,303.7,2582.3,299.9,2567.2,296.8Z"/><path class="cls-3" d="M2567.2,370.8c-75.3-15.1-71.9-49.5-148.6-49.5s-76.8,50-153.6,50-76.7-50-153.5-50-76.7,50-153.5,50-76.8-50-153.5-50-76.8,50-153.6,50-76.7-50-153.5-50-76.8,50-153.5,50-76.8-50-153.6-50-76.7,50-153.5,50-76.8-50-153.5-50-76.8,50-153.6,50-76.7-50-153.5-50-76.8,50-153.5,50-76.8-50-153.6-50-76.7,50-153.5,50-76.8-50-153.5-50-76.8,50-153.6,50-76.8-50-153.5-50-76.8,50-153.6,50-83.2-64.6-158.4-49.5c-15.2,3.1,29.9,40,29.9,55.4s-50,15.5-50,31,50,15.4,50,30.9-50,15.4-50,30.9,50,15.5,50,30.9-50,15.5-50,31,50,15.4,50,30.9-50,15.4-50,30.9,50,15.5,50,30.9-50,15.5-50,31,50,15.4,50,30.9-50,15.4-50,30.9,50,15.5,50,30.9-50,15.5-50,31,50,15.4,50,30.9-50,15.4-50,30.9,50,15.5,50,30.9-50,15.5-50,31,50,15.4,50,30.9-50,15.5-50,30.9,14.8,3.4,29.9,6.5c75.3,15.1,71.9,49.5,148.6,49.5s76.8-50,153.6-50,76.7,50,153.5,50,76.7-50,153.5-50,76.8,50,153.5,50,76.8-50,153.6-50,76.7,50,153.5,50,76.8-50,153.5-50,76.8,50,153.6,50,76.7-50,153.5-50,76.8,50,153.5,50,76.8-50,153.6-50,76.7,50,153.5,50,76.8-50,153.5-50,76.8,50,153.6,50,76.7-50,153.5-50,76.8,50,153.5,50,76.8-50,153.6-50,76.8,50,153.5,50,76.8-50,153.6-50,83.2,64.6,158.4,49.5c15.2-3.1-29.9-40-29.9-55.5s50-15.4,50-30.9-50-15.4-50-30.9,50-15.5,50-30.9-50-15.5-50-30.9,50-15.5,50-31-50-15.4-50-30.9,50-15.5,50-30.9-50-15.5-50-30.9,50-15.5,50-31-50-15.4-50-30.9,50-15.5,50-30.9-50-15.5-50-30.9,50-15.5,50-31-50-15.4-50-30.9,50-15.5,50-30.9-50-15.5-50-31,50-15.4,50-30.9-50-15.4-50-30.9,44.5-9,49-23.8C2598.1,377.7,2582.3,373.9,2567.2,370.8Z"/><path class="cls-4" d="M2567.2,565.2c-75.3-15.2-71.9-49.5-148.6-49.5s-76.8,50-153.6,50-76.7-50-153.5-50-76.7,50-153.5,50-76.8-50-153.5-50-76.8,50-153.6,50-76.7-50-153.5-50-76.8,50-153.5,50-76.8-50-153.6-50-76.7,50-153.5,50-76.8-50-153.5-50-76.8,50-153.6,50-76.7-50-153.5-50-76.8,50-153.5,50-76.8-50-153.6-50-76.7,50-153.5,50-76.8-50-153.5-50-76.8,50-153.6,50-76.8-50-153.5-50-76.8,50-153.6,50S-581.8,501-657,516.2c-15.2,3,29.9,39.9,29.9,55.4s-50,15.5-50,30.9,50,15.5,50,30.9-50,15.5-50,31,50,15.4,50,30.9-50,15.5-50,30.9,50,15.5,50,30.9-50,15.5-50,31,50,15.4,50,30.9-50,15.5-50,30.9,50,15.5,50,30.9-50,15.5-50,31,50,15.4,50,30.9-50,15.5-50,30.9,50,15.5,50,30.9-50,15.5-50,31,50,15.4,50,30.9-50,15.5-50,30.9,50,15.5,50,31-50,15.4-50,30.9,14.8,3.4,29.9,6.4c75.3,15.2,71.9,49.5,148.6,49.5s76.8-50,153.6-50,76.7,50,153.5,50,76.7-50,153.5-50,76.8,50,153.5,50,76.8-50,153.6-50,76.7,50,153.5,50,76.8-50,153.5-50,76.8,50,153.6,50,76.7-50,153.5-50,76.8,50,153.5,50,76.8-50,153.6-50,76.7,50,153.5,50,76.8-50,153.5-50,76.8,50,153.6,50,76.7-50,153.5-50,76.8,50,153.5,50,76.8-50,153.6-50,76.8,50,153.5,50,76.8-50,153.6-50,83.2,64.7,158.4,49.5c15.2-3-29.9-39.9-29.9-55.4s50-15.4,50-30.9-50-15.5-50-30.9,50-15.5,50-31-50-15.4-50-30.9,50-15.4,50-30.9-50-15.5-50-30.9,50-15.5,50-31-50-15.4-50-30.9,50-15.4,50-30.9-50-15.5-50-30.9,50-15.5,50-31-50-15.4-50-30.9,50-15.4,50-30.9-50-15.5-50-30.9,50-15.5,50-31-50-15.4-50-30.9,50-15.5,50-30.9-50-15.5-50-31,44.5-8.9,49-23.7C2598.1,572,2582.3,568.2,2567.2,565.2Z"/><path class="cls-5" d="M2567.2,600.5c-75.3-15.2-71.9-49.5-148.6-49.5s-76.8,50-153.6,50-76.7-50-153.5-50-76.7,50-153.5,50-76.8-50-153.5-50-76.8,50-153.6,50-76.7-50-153.5-50-76.8,50-153.5,50-76.8-50-153.6-50-76.7,50-153.5,50S960,551,883.3,551s-76.8,50-153.6,50S653,551,576.2,551s-76.8,50-153.5,50-76.8-50-153.6-50-76.7,50-153.5,50S38.8,551-37.9,551s-76.8,50-153.6,50-76.8-50-153.5-50-76.8,50-153.6,50-83.2-64.7-158.4-49.5c-15.2,3,29.9,40,29.9,55.4s-50,15.5-50,30.9,50,15.5,50,31-50,15.4-50,30.9,50,15.4,50,30.9-50,15.5-50,30.9,50,15.5,50,31-50,15.4-50,30.9,50,15.4,50,30.9-50,15.5-50,30.9,50,15.5,50,31-50,15.4-50,30.9,50,15.4,50,30.9-50,15.5-50,30.9,50,15.5,50,31-50,15.4-50,30.9,50,15.5,50,30.9-50,15.5-50,30.9,50,15.5,50,31-50,15.4-50,30.9,14.8,3.4,29.9,6.4c75.3,15.2,71.9,49.5,148.6,49.5s76.8-50,153.6-50,76.7,50,153.5,50,76.7-50,153.5-50,76.8,50,153.5,50,76.8-50,153.6-50,76.7,50,153.5,50,76.8-50,153.5-50,76.8,50,153.6,50,76.7-50,153.5-50,76.8,50,153.5,50,76.8-50,153.6-50,76.7,50,153.5,50,76.8-50,153.5-50,76.8,50,153.6,50,76.7-50,153.5-50,76.8,50,153.5,50,76.8-50,153.6-50,76.8,50,153.5,50,76.8-50,153.6-50,83.2,64.7,158.4,49.6c15.2-3.1-29.9-40-29.9-55.5s50-15.4,50-30.9-50-15.5-50-30.9,50-15.5,50-30.9-50-15.5-50-31,50-15.4,50-30.9-50-15.5-50-30.9,50-15.5,50-30.9-50-15.5-50-31,50-15.4,50-30.9-50-15.5-50-30.9,50-15.5,50-30.9-50-15.5-50-31,50-15.4,50-30.9-50-15.5-50-30.9,50-15.5,50-30.9-50-15.5-50-31,50-15.4,50-30.9-50-15.5-50-30.9,44.5-9,49-23.8C2598.1,607.4,2582.3,603.6,2567.2,600.5Z"/><path class="cls-6" d="M2567.2,656.3c-75.3-15.2-71.9-49.5-148.6-49.5s-76.8,50-153.6,50-76.7-50-153.5-50-76.7,50-153.5,50-76.8-50-153.5-50-76.8,50-153.6,50-76.7-50-153.5-50-76.8,50-153.5,50-76.8-50-153.6-50-76.7,50-153.5,50-76.8-50-153.5-50-76.8,50-153.6,50-76.7-50-153.5-50-76.8,50-153.5,50-76.8-50-153.6-50-76.7,50-153.5,50-76.8-50-153.5-50-76.8,50-153.6,50-76.8-50-153.5-50-76.8,50-153.6,50-83.2-64.7-158.4-49.5c-15.2,3,29.9,39.9,29.9,55.4s-50,15.5-50,30.9,50,15.5,50,31-50,15.4-50,30.9,50,15.4,50,30.9-50,15.5-50,30.9,50,15.5,50,31-50,15.4-50,30.9,50,15.4,50,30.9-50,15.5-50,30.9,50,15.5,50,31-50,15.4-50,30.9,50,15.4,50,30.9-50,15.5-50,30.9,50,15.5,50,31-50,15.4-50,30.9,50,15.4,50,30.9-50,15.5-50,30.9,50,15.5,50,31-50,15.4-50,30.9,14.8,3.4,29.9,6.4c75.3,15.2,71.9,49.5,148.6,49.5s76.8-50,153.6-50,76.7,50,153.5,50,76.7-50,153.5-50,76.8,50,153.5,50,76.8-50,153.6-50,76.7,50,153.5,50,76.8-50,153.5-50,76.8,50,153.6,50,76.7-50,153.5-50,76.8,50,153.5,50,76.8-50,153.6-50,76.7,50,153.5,50,76.8-50,153.5-50,76.8,50,153.6,50,76.7-50,153.5-50,76.8,50,153.5,50,76.8-50,153.6-50,76.8,50,153.5,50,76.8-50,153.6-50,83.2,64.7,158.4,49.5c15.2-3-29.9-39.9-29.9-55.4s50-15.4,50-30.9-50-15.5-50-30.9,50-15.5,50-30.9-50-15.5-50-31,50-15.4,50-30.9-50-15.5-50-30.9,50-15.5,50-30.9-50-15.5-50-31,50-15.4,50-30.9-50-15.5-50-30.9,50-15.5,50-31-50-15.4-50-30.9,50-15.4,50-30.9-50-15.5-50-30.9,50-15.5,50-31-50-15.4-50-30.9,50-15.4,50-30.9-50-15.5-50-30.9,44.5-9,49-23.8C2598.1,663.1,2582.3,659.4,2567.2,656.3Z"/><path class="cls-7" d="M2567.2,712.1c-75.3-15.2-71.9-49.5-148.6-49.5s-76.8,50-153.6,50-76.7-50-153.5-50-76.7,50-153.5,50-76.8-50-153.5-50-76.8,50-153.6,50-76.7-50-153.5-50-76.8,50-153.5,50-76.8-50-153.6-50-76.7,50-153.5,50-76.8-50-153.5-50-76.8,50-153.6,50-76.7-50-153.5-50-76.8,50-153.5,50-76.8-50-153.6-50-76.7,50-153.5,50-76.8-50-153.5-50-76.8,50-153.6,50-76.8-50-153.5-50-76.8,50-153.6,50-83.2-64.7-158.4-49.5c-15.2,3,29.9,39.9,29.9,55.4s-50,15.5-50,30.9,50,15.5,50,30.9-50,15.5-50,31,50,15.4,50,30.9-50,15.5-50,30.9,50,15.5,50,30.9-50,15.5-50,31,50,15.4,50,30.9-50,15.5-50,30.9,50,15.5,50,31-50,15.4-50,30.9,50,15.4,50,30.9-50,15.5-50,30.9,50,15.5,50,30.9-50,15.5-50,31,50,15.4,50,30.9-50,15.5-50,30.9,50,15.5,50,31-50,15.4-50,30.9,14.8,3.4,29.9,6.4c75.3,15.2,71.9,49.5,148.6,49.5s76.8-50,153.6-50,76.7,50,153.5,50,76.7-50,153.5-50,76.8,50,153.5,50,76.8-50,153.6-50,76.7,50,153.5,50,76.8-50,153.5-50,76.8,50,153.6,50,76.7-50,153.5-50,76.8,50,153.5,50,76.8-50,153.6-50,76.7,50,153.5,50,76.8-50,153.5-50,76.8,50,153.6,50,76.7-50,153.5-50,76.8,50,153.5,50,76.8-50,153.6-50,76.8,50,153.5,50,76.8-50,153.6-50,83.2,64.7,158.4,49.5c15.2-3-29.9-39.9-29.9-55.4s50-15.4,50-30.9-50-15.5-50-30.9,50-15.5,50-31-50-15.4-50-30.9,50-15.4,50-30.9-50-15.5-50-30.9,50-15.5,50-31-50-15.4-50-30.9,50-15.4,50-30.9-50-15.5-50-30.9,50-15.5,50-31-50-15.4-50-30.9,50-15.4,50-30.9-50-15.5-50-30.9,50-15.5,50-31-50-15.4-50-30.9,50-15.5,50-30.9-50-15.5-50-30.9,44.5-9,49-23.8C2598.1,718.9,2582.3,715.1,2567.2,712.1Z"/><path class="cls-8" d="M2567.2,747.1c-75.3-15.2-71.9-49.5-148.6-49.5s-76.8,50-153.6,50-76.7-50-153.5-50-76.7,50-153.5,50-76.8-50-153.5-50-76.8,50-153.6,50-76.7-50-153.5-50-76.8,50-153.5,50-76.8-50-153.6-50-76.7,50-153.5,50-76.8-50-153.5-50-76.8,50-153.6,50-76.7-50-153.5-50-76.8,50-153.5,50-76.8-50-153.6-50-76.7,50-153.5,50-76.8-50-153.5-50-76.8,50-153.6,50-76.8-50-153.5-50-76.8,50-153.6,50-83.2-64.7-158.4-49.5c-15.2,3,29.9,39.9,29.9,55.4s-50,15.4-50,30.9,50,15.5,50,30.9-50,15.5-50,31,50,15.4,50,30.9-50,15.4-50,30.9,50,15.5,50,30.9-50,15.5-50,31,50,15.4,50,30.9-50,15.4-50,30.9,50,15.5,50,30.9-50,15.5-50,31,50,15.4,50,30.9-50,15.4-50,30.9,50,15.5,50,30.9-50,15.5-50,31,50,15.4,50,30.9-50,15.5-50,30.9,50,15.5,50,30.9-50,15.5-50,31,14.8,3.4,29.9,6.4c75.3,15.2,71.9,49.5,148.6,49.5s76.8-50,153.6-50,76.7,50,153.5,50,76.7-50,153.5-50,76.8,50,153.5,50,76.8-50,153.6-50,76.7,50,153.5,50,76.8-50,153.5-50,76.8,50,153.6,50,76.7-50,153.5-50,76.8,50,153.5,50,76.8-50,153.6-50,76.7,50,153.5,50,76.8-50,153.5-50,76.8,50,153.6,50,76.7-50,153.5-50,76.8,50,153.5,50,76.8-50,153.6-50,76.8,50,153.5,50,76.8-50,153.6-50,83.2,64.7,158.4,49.5c15.2-3-29.9-39.9-29.9-55.4s50-15.5,50-30.9-50-15.5-50-31,50-15.4,50-30.9-50-15.4-50-30.9,50-15.5,50-30.9-50-15.5-50-30.9,50-15.5,50-31-50-15.4-50-30.9,50-15.5,50-30.9-50-15.5-50-31,50-15.4,50-30.9-50-15.4-50-30.9,50-15.5,50-30.9-50-15.5-50-31,50-15.4,50-30.9-50-15.4-50-30.9,50-15.5,50-30.9-50-15.5-50-31,44.5-8.9,49-23.8C2598.1,753.9,2582.3,750.1,2567.2,747.1Z"/></svg>