<?xml version="1.0" encoding="utf-8"?>
<!-- Generator: Adobe Illustrator 24.0.3, SVG Export Plug-In . SVG Version: 6.00 Build 0)  -->
<svg version="1.1" id="Layer_1" xmlns:sketch="http://www.bohemiancoding.com/sketch/ns"
	 xmlns="http://www.w3.org/2000/svg" xmlns:xlink="http://www.w3.org/1999/xlink" x="0px" y="0px" viewBox="0 0 46 46"
	 style="enable-background:new 0 0 46 46;" xml:space="preserve">
<style type="text/css">
	.st0{fill-rule:evenodd;clip-rule:evenodd;fill:#4285F4;}
	.st1{fill-rule:evenodd;clip-rule:evenodd;fill:#34A853;}
	.st2{fill-rule:evenodd;clip-rule:evenodd;fill:#FBBC05;}
	.st3{fill-rule:evenodd;clip-rule:evenodd;fill:#EA4335;}
	.st4{fill:none;}
</style>
<g id="logo_googleg_48dp" transform="translate(15.000000, 15.000000)" sketch:type="MSLayerGroup">
	<path id="Shape" sketch:type="MSShapeGroup" class="st0" d="M25.7,8.4c0-1.3-0.1-2.6-0.3-3.8H8v7.1h9.9c-0.4,2.3-1.7,4.3-3.7,5.6
		V22h6C23.7,18.8,25.7,14,25.7,8.4L25.7,8.4z"/>
	<path id="Shape_1_" sketch:type="MSShapeGroup" class="st1" d="M8,26.5c5,0,9.2-1.7,12.2-4.5l-6-4.6c-1.7,1.1-3.8,1.8-6.3,1.8
		c-4.8,0-8.9-3.2-10.3-7.6h-6.2v4.8C-5.5,22.3,0.8,26.5,8,26.5L8,26.5z"/>
	<path id="Shape_2_" sketch:type="MSShapeGroup" class="st2" d="M-2.3,11.5C-2.7,10.4-2.9,9.2-2.9,8s0.2-2.4,0.6-3.5v-4.8h-6.2
		c-1.3,2.5-2,5.3-2,8.3s0.7,5.8,2,8.3L-2.3,11.5L-2.3,11.5z"/>
	<path id="Shape_3_" sketch:type="MSShapeGroup" class="st3" d="M8-3.1c2.7,0,5.1,0.9,7.1,2.8l5.3-5.3c-3.2-3-7.4-4.8-12.4-4.8
		C0.8-10.5-5.5-6.3-8.5-0.3l6.2,4.8C-0.9,0.1,3.2-3.1,8-3.1L8-3.1z"/>
	<path id="Shape_4_" sketch:type="MSShapeGroup" class="st4" d="M-10.5-10.5h36.9v36.9h-36.9V-10.5z"/>
</g>
</svg>
