<svg id="Layer_1" data-name="Layer 1" xmlns="http://www.w3.org/2000/svg" xmlns:xlink="http://www.w3.org/1999/xlink" viewBox="0 0 1187.7 1004.11"><defs><style>.cls-1,.cls-16{fill:#ff8e50;}.cls-1,.cls-12,.cls-4{opacity:0.1;}.cls-1,.cls-4{isolation:isolate;}.cls-2{fill:url(#linear-gradient);}.cls-3{fill:#515151;}.cls-13,.cls-4{fill:#0a0a0a;}.cls-5{fill:#333;}.cls-6{fill:#fdc2cc;}.cls-7{fill:#667c61;}.cls-8{fill:#dfe6f5;}.cls-9{fill:#53526b;}.cls-10{fill:#fff;}.cls-11{fill:#865a61;}.cls-14{fill:#e6e6e6;}.cls-15{fill:#4d4d4d;}</style><linearGradient id="linear-gradient" x1="952.03" y1="1109.67" x2="952.03" y2="210.26" gradientTransform="translate(-154.97 -101.64)" gradientUnits="userSpaceOnUse"><stop offset="0" stop-color="gray" stop-opacity="0.25"/><stop offset="0.54" stop-color="gray" stop-opacity="0.12"/><stop offset="1" stop-color="gray" stop-opacity="0.1"/></linearGradient></defs><ellipse class="cls-1" cx="422.4" cy="939.18" rx="422.4" ry="32.3"/><path class="cls-1" d="M635.7,65.7c29.2-26,75.1-31.3,116.8-29.3,131.1,6.5,249.4,69.8,351.8,141.4,37.1,25.9,73.5,53.8,97.6,89.5,49,72.6,34.4,173.3-33.6,233.1-23.2,20.4-51.2,36-80.1,49.8-51.3,24.6-106.6,44.4-164.8,50-41.5,4-83.5.7-124.7-4.8-115.2-15.6-228.4-50.2-323.2-109.3-41.6-25.9-80.8-58.2-97.9-100.1s-6.2-95.1,36.3-119.9c17.6-10.3,38.6-14.9,59.1-19.3,30.3-6.4,61-12.7,88.3-25.8,28.2-13.5,61.6-39.5,56-69.3C611.3,119.7,606.5,91.7,635.7,65.7Z" transform="translate(-369.6 -36.02)"/><ellipse class="cls-1" cx="1065.1" cy="971.48" rx="122.6" ry="31.1"/><path class="cls-2" d="M937.3,405.2c-2-3.9-12.6-27.9-12.6-27.9L907,331.5s-12.6-19.3-12.6-22.9-22.8-17.9-22.8-17.9-18.5-5.5-20-6.1-23.4-7.8-23.4-7.8-8.6-11.4-9.9-8.4h0c0-.1-.1-.1-.1-.2a28.5,28.5,0,0,1-3.3-10.6c0-.3-.1-.7-.1-1a42.35,42.35,0,0,0,18.6-34.9,32.72,32.72,0,0,0-.4-5.4c.2-.1.3-.2.5-.3.4-.2.3-.3,0-.4.1,0,.2-.1.3-.1.5-.2.2-.4-.3-.5h0c.6-.3-.2-.5-.8-.8,0-.2-.1-.4-.1-.6.1-.4.2-.7.3-1.1.1,0,.1.1.2.1a4.1,4.1,0,0,0,0-2.2c0,.1-.1.3-.1.4a3.68,3.68,0,0,0-1.7-3.3l-.1-.1,1.2-12.4c17.8-.8,21-31.2,16.9-32.9s0-5.3,0-12.6S835.8,134,835.8,134s-5.6,2.8-14.4-11.2-41-16.3-43.2-12.6-16.6,8.4-35.4,13.8-15.3,27.5-12.2,32.3a27,27,0,0,1,4.4,13.2c0,2.8,5.9,14.6,5.9,14.6-1.9,4.1,2.9,26.5,4.3,32.9a1.27,1.27,0,0,1-.1.6v.1c-.1.1-.1.2-.2.3a3.86,3.86,0,0,0-.3,2.1,4.45,4.45,0,0,0,.3,2.3,42.24,42.24,0,0,0,14.9,31.4,4.87,4.87,0,0,0,.1,1.2,163.42,163.42,0,0,1,.1,17.2,2.77,2.77,0,0,1-.1.9,6.62,6.62,0,0,0-4.8,3.8c-1.8,3.4-12,8.6-12,8.6s-18,.8-19.7,4.1S695.7,304,695.7,304,682,312,684,321.1c1,4.8-1.9,12.2-4.9,18.1a83.6,83.6,0,0,0-19.7-4.9l14.5,13.9a4,4,0,0,1-.5.7l-8.3,29.3s-2.9,10.2-5.7,12.7S662,416,662,416s-3.1,16-5.7,20.2,4,14.4,4,14.4l13.1,29.8,34.8,8.8,6.1,1.3a15.52,15.52,0,0,1-.4,2.1c-1.7,9.5-3.9,18.2-6.6,20.6-6.6,5.8-6.3,31.7-6.3,31.7l.3,36.7s2.3,45.3,1.1,46.9c-.7,1,.7,2.8,4.5,4.3l-.3,2.1c-1.1,7.5-1.6,16.1.9,19.9a13.79,13.79,0,0,1,1.7,6.6c0,3.6,5.4,11,5.4,11s-4.3,30.6,2.9,41.1,13.1,29.5,9.7,34c0,0-6,13-3.1,18.8s0,9.1-3.7,10.5-3.4,12.7-3.4,12.7l6.8,53.8s3.7,11,.6,14.9-3.1,23.2,1.7,29.8-6.8,18.8-6.8,18.8-7.1,10.2,4.3,13.5c0,0,2.3.6-2,5s-5.1,9.9-2.3,11.9a6.63,6.63,0,0,0,1.9.9,19.14,19.14,0,0,1-.4,2.1c-1.1,5.8-3.2,13.3-6.9,16.9A119.35,119.35,0,0,0,695.2,982c-3.9,7.4-5.6,14.4-1.3,17.6,10.3,7.7,23.4,10.2,31.1,7.2s18.5-12.4,18.5-12.4l2.6-10.8s-1.7-6.6,6.8-9.1,16.5-11.3,16.5-11.3V948.9a61.74,61.74,0,0,0,6-3.9s4-14.1,0-18.8-5.4-6.3-.3-9.4,5.8-9.7,2.1-15.5-9.8-14.4-4.6-26.5,7-49.4,7-49.4-2.4-25.4,0-31.2-2.7-17.4-2.7-17.4,1.7-14.4,4.8-21,5.7-41.7,5.7-41.7,5.7-14.9,5.7-24.6-8.8-32.9,4.3-38.9c0,0,5.7,5,3.4,24.8,0,0,6.6,23.2,6.6,30.4s4.8,33.1,4.8,33.1.6,8.3,2.6,11.3,0,11.3,0,11.3,7.4,6.9,5.4,11.3.3,14.4.3,14.4L818.7,849s-5.1,26.5,6.8,42.5c0,0-4.3,23.5-6.8,25.1s9.4,16,9.4,16-3.3,9.3,3.4,9.8v15.4a33.73,33.73,0,0,0,9.4,10.5c6.3,4.4,3.7,19.6,3.7,19.6s8,19.3,29.1,15.2,24-6.1,22.8-13c-.4-2.5-1.3-7-2.6-12.1-2.3-8.9-5.8-19.6-9.9-24.8-6.6-8.3-12-25.7-12-25.7s-2.6-5.8,0-7.7,1.4-5.5,1.4-5.5,2.5-7.2.3-11.6,4.3-13.5,4.3-13.5l-2-42.5,2-61.8s-8.8-10.2-5.1-16.3-4.3-14.6-4.3-14.6-.9-.3,1.4-7.2a16.63,16.63,0,0,0-.6-12.4s-4.8-17.1,3.7-30.1c0,0,3.7-17.1,4.8-25.9.8-6.1,5.7-29.1,8.6-42.5.2-.8.3-1.5.5-2.2,4.2.2,7.4.5,7.4.5s-6.6-45.6,0-54.9-5.1-81.2-5.1-81.2-2.8-12.5-4.5-25.3c-.1-.7-.2-1.5-.3-2.2,5.3-.4,10.6-.5,15.9-.4,13.7.8,27.1-4.4,27.4-9.7s7.7-25.9,8.8-30.6C938.4,425.1,939.3,409.1,937.3,405.2Z" transform="translate(-369.6 -36.02)"/><path class="cls-3" d="M770.8,937.8v25.6s-7.7,8.8-15.9,11.3-6.6,9.1-6.6,9.1l-2.5,10.7s-10.4,9.3-17.9,12.4-20.1.5-30-7.1c-4.2-3.2-2.5-10.2,1.2-17.5a121.78,121.78,0,0,1,18-24.8c3.6-3.6,5.6-11.1,6.7-16.8a69,69,0,0,0,1-7.6Z" transform="translate(-369.6 -36.02)"/><path class="cls-4" d="M770.8,956.8v6.5s-7.7,8.8-15.9,11.3-6.6,9.1-6.6,9.1l-2.5,10.7s-10.4,9.3-17.9,12.4-20.1.5-30-7.1c-4.2-3.2-2.5-10.2,1.2-17.5-.2,7.8,2.1,16.5,13.3,16.2a57,57,0,0,0,33.3-12.1s-.3-18.1,12.4-22.3A38,38,0,0,0,770.8,956.8Z" transform="translate(-369.6 -36.02)"/><path class="cls-3" d="M871.4,1003.2c-20.3,4.1-28-15.1-28-15.1s2.5-15.1-3.6-19.5a34.87,34.87,0,0,1-9.1-10.4V932.9l24.7-17.6,13.4,11.9.9.8s5.2,17.3,11.5,25.6c4,5.3,7.4,15.9,9.6,24.7,1.3,5.1,2.1,9.6,2.5,12.1C894.5,997.1,891.8,999.1,871.4,1003.2Z" transform="translate(-369.6 -36.02)"/><path class="cls-4" d="M871.4,1003.2c-20.3,4.1-28-15.1-28-15.1s2.5-15.1-3.6-19.5a34.87,34.87,0,0,1-9.1-10.4v-9.8c3.9,4.1,11.3,12.2,12.9,15.6,2.2,4.7,2.5,21.7,12.6,24.7s30,5.8,31.6-1.9a43,43,0,0,1,3-8.5c1.3,5.1,2.1,9.6,2.5,12.1C894.5,997.1,891.8,999.1,871.4,1003.2Z" transform="translate(-369.6 -36.02)"/><path class="cls-4" d="M724.9,932.8l45.9,4.9v13.5c-5.2,3.1-12.6,6.3-16.8,3-6.2-4.9-24.5-11.2-30.2-13.8A56.16,56.16,0,0,0,724.9,932.8Z" transform="translate(-369.6 -36.02)"/><path class="cls-4" d="M869.8,930.1c-6.3-2.2-17.6,7.4-32.4,13.5a15.17,15.17,0,0,1-6.6,1.5V932.9l24.7-17.6,13.4,11.9A19,19,0,0,0,869.8,930.1Z" transform="translate(-369.6 -36.02)"/><path class="cls-5" d="M886,627.5s-.9,4-2.1,9.9c-2.8,13.4-7.6,36.2-8.3,42.3-1.1,8.8-4.7,25.8-4.7,25.8-8.2,12.9-3.6,30-3.6,30a17.11,17.11,0,0,1,.5,12.4c-2.2,6.9-1.4,7.1-1.4,7.1s7.7,8.5,4.1,14.6,4.9,16.2,4.9,16.2l-1.9,61.6,1.9,42.3s-6.3,9.1-4.2,13.5-.2,11.5-.2,11.5,1.1,3.6-1.4,5.5,0,7.7,0,7.7c-6.3-2.2-17.6,7.4-32.4,13.5s-9.9-8.2-9.9-8.2-11.5-14.3-9.1-15.9,6.6-25,6.6-25c-11.5-15.9-6.6-42.3-6.6-42.3l1.7-61.5s-2.3-9.9-.3-14.3-5.2-11.3-5.2-11.3,1.9-8.2,0-11.3-2.5-11.3-2.5-11.3-4.7-25.8-4.7-33-6.3-30.2-6.3-30.2c2.2-19.8-3.3-24.7-3.3-24.7-12.6,6-4.1,29.1-4.1,38.8s-5.5,24.5-5.5,24.5-2.5,34.9-5.5,41.5-4.7,20.9-4.7,20.9,4.9,11.5,2.6,17.3,0,31.1,0,31.1-1.8,37.1-6.8,49.2.8,20.6,4.5,26.4,3,12.4-2,15.4-3.6,4.7.3,9.3,0,18.7,0,18.7-15.7,12.4-22.5,6.9-28.9-12.6-31.6-14.6-1.9-7.4,2.2-11.8,1.9-4.9,1.9-4.9c-11-3.3-4.1-13.5-4.1-13.5s11.3-12.1,6.6-18.7-4.7-25.8-1.6-29.7-.5-14.8-.5-14.8l-6.6-53.6s-.3-11.3,3.3-12.6,6.3-4.7,3.6-10.4,3-18.7,3-18.7c3.3-4.4-2.5-23.4-9.3-33.8s-2.7-41-2.7-41-5.2-7.4-5.2-11a16.85,16.85,0,0,0-1.6-6.6c-2.4-3.8-1.9-12.3-.9-19.8,1-7.2,2.5-13.5,2.5-13.5Z" transform="translate(-369.6 -36.02)"/><path class="cls-6" d="M832.1,316,778,328.7s-26.7-22.5-20.1-34.6c2.3-4.2,3.3-11.2,3.6-18.7.3-5.9.1-12-.1-17.2-.4-7.5-1-13-1-13s55.5-31.3,53.6,0a75,75,0,0,0,.4,15.7,30.3,30.3,0,0,0,3.2,10.6c3,5.3,6.6,5.4,6.6,5.4Z" transform="translate(-369.6 -36.02)"/><path class="cls-4" d="M814.3,260.8a42.59,42.59,0,0,1-53-2.6c-.4-7.5-1-13-1-13s55.5-31.3,53.6,0A90.65,90.65,0,0,0,814.3,260.8Z" transform="translate(-369.6 -36.02)"/><circle class="cls-6" cx="419.9" cy="189.08" r="42.6"/><path class="cls-4" d="M832.1,316,778,328.7s-26.7-22.5-20.1-34.6c2.3-4.2,3.3-11.2,3.6-18.7a27.33,27.33,0,0,0,9.9,16.5c12.4,8.2,10.4,18.4,10.4,18.4l22.3-.8c-1.4-9.1,6.9-14,9.6-15.1s1.4-6,1.4-6l2.4-16.9c3,5.3,6.6,5.4,6.6,5.4Z" transform="translate(-369.6 -36.02)"/><path class="cls-4" d="M886,627.5s-.9,4-2.1,9.9c-6-.3-13.9-.5-17.4.3-6,1.4-30.2,1.9-30.2,1.9l-59.9,2.1v-1.8a176.69,176.69,0,0,0-20.6,1.4c-10.2,1.4-26.1-.5-36.3-2.2a36.16,36.16,0,0,1-9.1-2.5c1-7.2,2.5-13.5,2.5-13.5Z" transform="translate(-369.6 -36.02)"/><path class="cls-7" d="M881.3,452.9c-.9,5.1-.2,13.6.9,22,1.7,12.7,4.4,25.2,4.4,25.2s11.3,71.5,4.9,80.8,0,54.7,0,54.7-19-1.6-25-.3-30.2,1.9-30.2,1.9l-59.9,2.1v-1.8a176.69,176.69,0,0,0-20.6,1.4c-10.2,1.4-26.1-.5-36.3-2.2s-14.3-4.9-13.2-6.6-1.1-46.7-1.1-46.7l-.3-36.6s-.3-25.8,6-31.6c2.6-2.4,4.7-11,6.3-20.5,2.3-13.7,3.6-29,3.6-29L679,354l-.8-2.2s12.1-18.7,10.2-27.8,11.3-17,11.3-17,25-11,26.7-14.3,19-4.1,19-4.1,9.9-5.2,11.6-8.6a6.41,6.41,0,0,1,4.6-3.7,28,28,0,0,0,9.9,16.8c12.4,8.2,10.4,18.4,10.4,18.4l22.3-.8c-1.4-9.1,6.9-14,9.6-15.1s1.4-6,1.4-6l2.6-17.8c1.2-3,9.5,8.4,9.5,8.4s21.2,7.2,22.5,7.8,19.2,6,19.2,6,22,14.3,22,17.9,12.1,22.8,12.1,22.8-.1.8-.4,2.2C899.8,351.8,883.3,441.1,881.3,452.9Z" transform="translate(-369.6 -36.02)"/><path class="cls-6" d="M793.4,408.4s-47.6-12.6-52.2-15.7-32.2,14.6,1.4,38.5c0,0,41,8.5,52,0S793.4,408.4,793.4,408.4Z" transform="translate(-369.6 -36.02)"/><path class="cls-4" d="M896.2,333.1l5.8.3L919,379s10.2,23.9,12.1,27.8,1.1,19.8,0,24.5-8.2,25.3-8.5,30.5-13.2,10.4-26.4,9.6-44,3.3-44,3.3-32.9-3.4-53,6.9c0,0-12.9-26.7-11.5-76.4,0,0,22.8-1.4,28.6.8s33.8,8.5,37.4,5.2,19.8,6,19.8,6a13.6,13.6,0,0,0,0-11.5c-2.7-6.6-7.4-27.2-1.4-33.8S896.2,333.1,896.2,333.1Z" transform="translate(-369.6 -36.02)"/><path class="cls-4" d="M882.2,475c-13.6.9-28.9,3-28.9,3s-32.9-3.4-53,6.9c0,0-12.9-26.7-11.5-76.4,0,0,22.8-1.4,28.6.8s33.8,8.5,37.4,5.2,19.8,6,19.8,6a13.6,13.6,0,0,0,0-11.5c-2.7-6.6-7.4-27.2-1.4-33.8s24.2-38.8,24.2-38.8l5.4.3C900,351.9,883.5,441.2,881.5,453,880.5,458.1,881.1,466.6,882.2,475Z" transform="translate(-369.6 -36.02)"/><path class="cls-7" d="M897.3,334.2l5.8.3,17,45.6s10.2,23.9,12.1,27.8,1.1,19.8,0,24.5-8.2,25.3-8.5,30.5-13.2,10.4-26.4,9.6-44,3.3-44,3.3-32.9-3.4-53,6.9c0,0-12.9-26.7-11.5-76.4,0,0,22.8-1.4,28.6.8s33.8,8.5,37.4,5.2,19.8,6,19.8,6a13.6,13.6,0,0,0,0-11.5c-2.7-6.6-7.4-27.2-1.4-33.8S897.3,334.2,897.3,334.2Z" transform="translate(-369.6 -36.02)"/><rect class="cls-8" x="825.42" y="402.4" width="72.6" height="8.1" transform="matrix(0.53, -0.85, 0.85, 0.53, -307.08, 889.12)"/><ellipse class="cls-8" cx="889.95" cy="360.72" rx="23.2" ry="16.3" transform="matrix(0.53, -0.85, 0.85, 0.53, -254.83, 891.47)"/><ellipse class="cls-4" cx="889.95" cy="360.72" rx="16.7" ry="11.7" transform="matrix(0.53, -0.85, 0.85, 0.53, -254.83, 891.47)"/><rect class="cls-9" x="812.39" y="445.55" width="45.2" height="8.1" transform="matrix(0.53, -0.85, 0.85, 0.53, -356.43, 886.84)"/><path class="cls-6" d="M779.3,469.4l16.8-4.7s82.7,2.2,55-31.9c0,0-14.6-14-45.1-2.7s-39,12.6-39,12.6Z" transform="translate(-369.6 -36.02)"/><circle class="cls-4" cx="397.4" cy="286.38" r="3.3"/><circle class="cls-4" cx="454" cy="284.38" r="3.3"/><circle class="cls-10" cx="397.4" cy="285.28" r="3.3"/><circle class="cls-4" cx="402.1" cy="331.98" r="3.3"/><circle class="cls-4" cx="455.6" cy="328.68" r="3.3"/><circle class="cls-10" cx="402.1" cy="330.88" r="3.3"/><circle class="cls-4" cx="454.3" cy="487.88" r="3.3"/><circle class="cls-4" cx="410.9" cy="487.88" r="3.3"/><circle class="cls-10" cx="454.3" cy="486.78" r="3.3"/><circle class="cls-4" cx="414.2" cy="543.08" r="3.3"/><circle class="cls-4" cx="455.6" cy="539.78" r="3.3"/><circle class="cls-10" cx="414.2" cy="541.98" r="3.3"/><circle class="cls-10" cx="410.9" cy="486.78" r="3.3"/><circle class="cls-10" cx="455.6" cy="538.68" r="3.3"/><circle class="cls-10" cx="454" cy="283.28" r="3.3"/><circle class="cls-10" cx="455.6" cy="327.58" r="3.3"/><path class="cls-4" d="M830.2,479.3s.5,75.3,2.2,88.8C832.4,568.1,833,482.9,830.2,479.3Z" transform="translate(-369.6 -36.02)"/><path class="cls-4" d="M844.2,514.2c-1.1,0,22.5,88.2,23.6,94.6S850.8,514.2,844.2,514.2Z" transform="translate(-369.6 -36.02)"/><path class="cls-4" d="M862.9,499.9c0,.8,13.2,47.8,19.8,50.3S862.9,499.9,862.9,499.9Z" transform="translate(-369.6 -36.02)"/><path class="cls-4" d="M914.9,408.4s-28,1.2-28.9,5.3S914.9,408.4,914.9,408.4Z" transform="translate(-369.6 -36.02)"/><path class="cls-4" d="M865.4,766.8s-20.1,8.5-17,9.1S865.4,766.8,865.4,766.8Z" transform="translate(-369.6 -36.02)"/><path class="cls-4" d="M823.9,754.2c-.8-1.8,13.5,7.1,13.5,8.2S825,756.6,823.9,754.2Z" transform="translate(-369.6 -36.02)"/><path class="cls-4" d="M842.6,783s15.7-.8,16.8,5.2S842.6,783,842.6,783Z" transform="translate(-369.6 -36.02)"/><path class="cls-4" d="M729.9,783s17-3.3,18.4,0S729.9,783,729.9,783Z" transform="translate(-369.6 -36.02)"/><path class="cls-4" d="M736.2,886.6s1.1,14-3,17.3S736.2,886.6,736.2,886.6Z" transform="translate(-369.6 -36.02)"/><path class="cls-4" d="M734.1,916.3c5.4.5,33.7-4.4,33.4,0S734.1,916.3,734.1,916.3Z" transform="translate(-369.6 -36.02)"/><path class="cls-4" d="M864,899.3s-9.7-1.5-7.3,5Z" transform="translate(-369.6 -36.02)"/><path class="cls-4" d="M684.5,350.7h-5.2l-8,29.1s-2.7,10.2-5.5,12.6,2.5,25,2.5,25-3,15.9-5.5,20.1,3.8,14.3,3.8,14.3l12.6,29.7,33.5,8.8s59.1,12.9,61.8,14.8,5.2-.8,7.1-18.7,7.1-52.5,11.3-54.1c0,0-33,3.6-35.7,3s-15.9.3-15.9.3-17.3-1.1-20.1.5,3.6-8,3.6-8a25.76,25.76,0,0,0,0-13.5C723,407.3,721.9,323.2,684.5,350.7Z" transform="translate(-369.6 -36.02)"/><path class="cls-4" d="M792,435.6c-4.1,1.6-9.3,36.3-11.3,54.1s-4.4,20.6-7.1,18.7c-2.2-1.6-41.6-10.4-56.3-13.6,2.3-13.7,3.6-29,3.6-29L679,354h4.4c37.4-27.5,38.5,56.6,40.4,64a25.76,25.76,0,0,1,0,13.5s-6.3,9.6-3.6,8,20.1-.5,20.1-.5,13.2-.8,15.9-.3S792,435.6,792,435.6Z" transform="translate(-369.6 -36.02)"/><path class="cls-7" d="M683.4,351.8h-5.2l-8,29.1s-2.7,10.2-5.5,12.6,2.5,25,2.5,25-3,15.9-5.5,20.1,3.8,14.3,3.8,14.3l12.6,29.7,33.5,8.8s59.1,12.9,61.8,14.8,5.2-.8,7.1-18.7,7.1-52.5,11.3-54.1c0,0-33,3.6-35.7,3s-15.9.3-15.9.3-17.3-1.1-20.1.5,3.6-8,3.6-8a25.76,25.76,0,0,0,0-13.5C721.9,408.4,720.8,324.3,683.4,351.8Z" transform="translate(-369.6 -36.02)"/><path class="cls-4" d="M701.3,451.3s-15.1,28.6-17.9,25.3S701.3,451.3,701.3,451.3Z" transform="translate(-369.6 -36.02)"/><path class="cls-4" d="M685.6,435s-14,11.6-7.4,14.6S685.6,435,685.6,435Z" transform="translate(-369.6 -36.02)"/><path class="cls-4" d="M698.8,420.8c1.1.3,20.3,4.1,20.6,5.8S698.8,420.8,698.8,420.8Z" transform="translate(-369.6 -36.02)"/><path class="cls-4" d="M832.2,219.4a2.83,2.83,0,0,0-1.9,2.9c-1.1,1-2.7-.2-3.6-1.4s-2-2.8-3.4-2.6a10.84,10.84,0,0,0-1.9.8c-2.2.7-4.1-1.9-5.3-4.1-2.1-4-4.3-7.9-6.4-11.9-4.3,2.5-9.4-.1-13.6-2.7s-9.3-5.2-13.7-2.7c-6.3,3.7-6.6,15.8-13.1,18.8-2.1,1-4.6.8-6.5,2.1s-3,3.9-3.8,6.3a6.82,6.82,0,0,1-2.2,3.6,4.19,4.19,0,0,1-2.2.5,10.22,10.22,0,0,1-5.7-.8,4.94,4.94,0,0,1-2-5.7c.1-.1.1-.2.2-.3.7-.9,1.3-1.8,1.9-2.7.7-1.7-.3-3.8-.1-5.7.3-3.2,3.8-4.9,4.3-8.1.2-1.2,0-2.6.2-3.8,0-.2.1-.3.1-.5l-2,1.4c2.3-2.6,3.4-6.3,5-9.5a29,29,0,0,1,17.8-14.5c7.2-2.1,14.7-1.5,22,.3a70,70,0,0,1,19.6,8.1,19.58,19.58,0,0,1,5.7,4.6A37.38,37.38,0,0,1,825,198c2.1,4.4,8,8.5,3.3,9.1-3.9.5-.3,3.2,1.7,5a4.89,4.89,0,0,1,1.2,1.3,4.58,4.58,0,0,1-.2,4.4C830.2,218.7,833.3,218.9,832.2,219.4Z" transform="translate(-369.6 -36.02)"/><path class="cls-11" d="M832.2,218.3a2.83,2.83,0,0,0-1.9,2.9c-1.1,1-2.7-.2-3.6-1.4s-2-2.8-3.4-2.6a10.84,10.84,0,0,0-1.9.8c-2.2.7-4.1-1.9-5.3-4.1-2.1-4-4.3-7.9-6.4-11.9-4.3,2.5-9.4-.1-13.6-2.7s-9.3-5.2-13.7-2.7c-6.3,3.7-6.6,15.8-13.1,18.8-2.1,1-4.6.8-6.5,2.1s-3,3.9-3.8,6.3a6.82,6.82,0,0,1-2.2,3.6,4.19,4.19,0,0,1-2.2.5,10.22,10.22,0,0,1-5.7-.8,4.94,4.94,0,0,1-2-5.7c.1-.1.1-.2.2-.3.7-.9,1.3-1.8,1.9-2.7.7-1.7-.3-3.8-.1-5.7.3-3.2,3.8-4.9,4.3-8.1.2-1.2,0-2.6.2-3.8,0-.2.1-.3.1-.5l-2,1.4c2.3-2.6,3.4-6.3,5-9.5a29,29,0,0,1,17.8-14.5c7.2-2.1,14.7-1.5,22,.3a70,70,0,0,1,19.6,8.1,19.58,19.58,0,0,1,5.7,4.6,37.38,37.38,0,0,1,3.4,6.2c2.1,4.4,8,8.5,3.3,9.1-3.9.5-.3,3.2,1.7,5a4.89,4.89,0,0,1,1.2,1.3,4.58,4.58,0,0,1-.2,4.4C830.2,217.6,833.3,217.8,832.2,218.3Z" transform="translate(-369.6 -36.02)"/><path class="cls-4" d="M830,211l-.4,4.6s-46.1-58.5-82,7.6c0,0-.2-.8-.5-2.2.7-.9,1.3-1.8,1.9-2.7.7-1.7-.3-3.8-.1-5.7.3-3.2,3.8-4.9,4.3-8.1.2-1.2,0-2.6.2-3.8,0-.2.1-.3.1-.5l-2,1.4c2.3-2.6,3.4-6.3,5-9.5a29,29,0,0,1,17.8-14.5c7.2-2.1,14.7-1.5,22,.3a70,70,0,0,1,19.6,8.1,19.58,19.58,0,0,1,5.7,4.6,37.38,37.38,0,0,1,3.4,6.2c2.1,4.4,8,8.5,3.3,9.1C824.5,206.4,828,209.1,830,211Z" transform="translate(-369.6 -36.02)"/><g class="cls-12"><path class="cls-13" d="M831.1,217.7a1.9,1.9,0,0,0-.5,1.9c-1.1,1-2.7-.2-3.6-1.4s-2-2.8-3.4-2.6a10.84,10.84,0,0,0-1.9.8c-2.2.7-4.1-1.9-5.3-4.1-2.1-4-4.3-7.9-6.4-11.9-4.3,2.5-9.4-.1-13.6-2.7s-9.3-5.2-13.7-2.7c-6.3,3.7-6.6,15.8-13.1,18.8-2.1,1-4.6.8-6.5,2.1s-3,3.9-3.8,6.3a6.82,6.82,0,0,1-2.2,3.6,4.19,4.19,0,0,1-2.2.5,10.22,10.22,0,0,1-5.7-.8,4.92,4.92,0,0,1-2.1-3,5,5,0,0,0,2.1,5.2,9.41,9.41,0,0,0,5.7.8,5.45,5.45,0,0,0,2.2-.5,7.08,7.08,0,0,0,2.2-3.6c.9-2.4,1.9-5,3.8-6.3s4.4-1.1,6.5-2.1c6.6-3,6.8-15.2,13.1-18.8,4.3-2.5,9.4.1,13.7,2.7s9.3,5.2,13.6,2.7c2.1,4,4.3,7.9,6.4,11.9,1.2,2.3,3.1,4.8,5.3,4.1a15.39,15.39,0,0,1,1.9-.8c1.4-.2,2.4,1.4,3.4,2.6s2.5,2.4,3.6,1.4a2.83,2.83,0,0,1,1.9-2.9C833.4,218.5,831.5,218.3,831.1,217.7Z" transform="translate(-369.6 -36.02)"/><path class="cls-13" d="M827.6,206.7c.3-.1.7-.2,1-.3,2-.3,2.1-1.2,1.2-2.6a5.64,5.64,0,0,1-1.2.4C826.4,204.6,826.6,205.6,827.6,206.7Z" transform="translate(-369.6 -36.02)"/><path class="cls-13" d="M831.8,215.9a5,5,0,0,0,0-2.1,2.73,2.73,0,0,1-.6,1.2C830.9,215.4,831.3,215.7,831.8,215.9Z" transform="translate(-369.6 -36.02)"/><path class="cls-13" d="M749.2,212.8a.76.76,0,0,1-.1.4,15.14,15.14,0,0,0,.2,3A9.65,9.65,0,0,0,749.2,212.8Z" transform="translate(-369.6 -36.02)"/><path class="cls-13" d="M753.7,199.4a16.65,16.65,0,0,1-1.8,2.8l1.8-1.2A4.29,4.29,0,0,1,753.7,199.4Z" transform="translate(-369.6 -36.02)"/></g><path class="cls-14" d="M747.5,222s-6.6-29.7-4.5-34.4c0,0-5.7-11.8-5.7-14.5a27.41,27.41,0,0,0-4.2-13.1c-3-4.8-6.3-26.9,11.8-32.2s32-10.1,34.1-13.7,33.2-1.4,41.6,12.6,13.9,11.2,13.9,11.2,13,8.1,13,15.4-3.9,10.9,0,12.6.9,31.9-16.3,32.7l-1.5,15.9C829.6,214.5,783.4,156,747.5,222Z" transform="translate(-369.6 -36.02)"/><path class="cls-4" d="M749.5,133.5s-4,23.4,3.3,31.2Z" transform="translate(-369.6 -36.02)"/><path class="cls-4" d="M768.2,128.2s-10.2,25-7.7,29.8Z" transform="translate(-369.6 -36.02)"/><path class="cls-4" d="M777,120.2s-6.9,32.6-3.6,35.2Z" transform="translate(-369.6 -36.02)"/><path class="cls-4" d="M788.8,129s-8.5,20.9-5.1,23.8Z" transform="translate(-369.6 -36.02)"/><path class="cls-4" d="M804.9,131.5s-10,17-8,20.1Z" transform="translate(-369.6 -36.02)"/><path class="cls-4" d="M825.5,148.1s-10.7,2.9-8.5,6.3Z" transform="translate(-369.6 -36.02)"/><path class="cls-4" d="M835.7,165.8s-9.6,4.7-7.8,7.1Z" transform="translate(-369.6 -36.02)"/><path class="cls-4" d="M743,187.6s61.4-25,88.1,10.9C831.1,198.5,798.8,171.1,743,187.6Z" transform="translate(-369.6 -36.02)"/><polygon class="cls-9" points="351.2 356.68 359.8 347.98 384 371.98 375.4 380.58 353.2 358.58 351.2 356.68"/><path class="cls-8" d="M664.7,337.2s37.5,3.2,72.3,42.4l-14.5,14.7Z" transform="translate(-369.6 -36.02)"/><path class="cls-6" d="M777.1,407.4s-36-13.1-39.6-16.3-24.4,15.1,1,40c0,0,31.1,8.8,39.4,0S777.1,407.4,777.1,407.4Z" transform="translate(-369.6 -36.02)"/><path class="cls-15" d="M1512.3,1015.9q-77.55,48.45-155,0a10.82,10.82,0,0,1-5-9.7l16.1-209.5h130.4l18.4,209.5A10.25,10.25,0,0,1,1512.3,1015.9Z" transform="translate(-369.6 -36.02)"/><ellipse class="cls-15" cx="1063.5" cy="762.98" rx="65.8" ry="23.7"/><path class="cls-16" d="M1484.7,791q-51.45,36.15-99.6,0V753.1h99.6Z" transform="translate(-369.6 -36.02)"/><ellipse class="cls-16" cx="1065.3" cy="717.08" rx="49.8" ry="19"/><ellipse class="cls-14" cx="1067.6" cy="714.68" rx="4.7" ry="2.4"/><ellipse class="cls-14" cx="1090" cy="714.68" rx="4.7" ry="2.4"/><ellipse class="cls-14" cx="1078.8" cy="720.28" rx="4.7" ry="2.4"/><ellipse class="cls-14" cx="1034.1" cy="720.28" rx="4.7" ry="2.4"/><ellipse class="cls-14" cx="1045.3" cy="714.68" rx="4.7" ry="2.4"/><ellipse class="cls-14" cx="1056.5" cy="723.08" rx="4.7" ry="2.4"/></svg>