<svg id="Horizontal" xmlns="http://www.w3.org/2000/svg" viewBox="0 0 1441.129 301.579"><defs><style>.cls-1{fill:#ff4f4f;}</style></defs><g id="Navbar_Hover" data-name="Navbar Hover"><path class="cls-1" d="M589.913,513.224c-2.475-50.4,38.476-92.252,87.752-92.252a86.778,86.778,0,0,1,47.926,14.4,7.535,7.535,0,0,1-4.05,13.95,9.31,9.31,0,0,1-4.275-1.125,72.278,72.278,0,0,0-112.053,60.3c0,40.725,32.626,72.676,73.127,72.676A71.578,71.578,0,0,0,726.266,562.5a9.319,9.319,0,0,1,5.176-2.024,7.744,7.744,0,0,1,5.175,13.5,87.782,87.782,0,0,1-59.4,22.726C630.413,596.477,592.388,559.576,589.913,513.224Z" transform="translate(-238.935 -366)"/><path class="cls-1" d="M809.064,484.2a56.252,56.252,0,1,1-56.251,56.251A56.272,56.272,0,0,1,809.064,484.2Zm0,15.075a41.289,41.289,0,1,0,41.177,41.176A41.388,41.388,0,0,0,809.064,499.274Z" transform="translate(-238.935 -366)"/><path class="cls-1" d="M935.064,484.2a56.252,56.252,0,1,1-56.252,56.251A56.271,56.271,0,0,1,935.064,484.2Zm0,15.075A41.289,41.289,0,1,0,976.24,540.45,41.388,41.388,0,0,0,935.064,499.274Z" transform="translate(-238.935 -366)"/><path class="cls-1" d="M1019.663,419.847v151.2l84.376-85.277a8.3,8.3,0,0,1,5.4-2.25,7.747,7.747,0,0,1,5.175,2.25,7.471,7.471,0,0,1,0,10.575l-43.652,44.326,43.652,43.2a7.315,7.315,0,0,1,2.25,5.4,6.517,6.517,0,0,1-2.25,5.175,6.836,6.836,0,0,1-5.175,2.25,7.315,7.315,0,0,1-5.4-2.25l-43.651-43.2-42.751,43.2a7.313,7.313,0,0,1-5.4,2.25,6.836,6.836,0,0,1-5.175-2.25c-1.8-1.35-2.25-3.375-2.25-5.4v-169.2a7.346,7.346,0,0,1,7.425-7.426A7.492,7.492,0,0,1,1019.663,419.847Z" transform="translate(-238.935 -366)"/><path class="cls-1" d="M1130.361,513.224c-2.475-50.4,38.476-92.252,87.753-92.252a86.772,86.772,0,0,1,47.925,14.4,7.535,7.535,0,0,1-4.049,13.95,9.31,9.31,0,0,1-4.276-1.125,72.277,72.277,0,0,0-112.052,60.3c0,40.725,32.626,72.676,73.126,72.676a71.58,71.58,0,0,0,47.927-18.676,9.316,9.316,0,0,1,5.175-2.024,7.743,7.743,0,0,1,5.175,13.5,87.778,87.778,0,0,1-59.4,22.726C1170.863,596.477,1132.836,559.576,1130.361,513.224Z" transform="translate(-238.935 -366)"/><path class="cls-1" d="M1405.089,491.849v124.2h-.224c-2.026,28.8-26.777,51.527-55.577,51.527a55.74,55.74,0,0,1-55.577-50.4,7.412,7.412,0,0,1,1.8-5.625,7.188,7.188,0,0,1,5.4-2.475,7.374,7.374,0,0,1,7.424,6.751,41.057,41.057,0,0,0,81.9-4.276v-33.3a55.892,55.892,0,0,1-96.978-37.8v-48.6a7.491,7.491,0,0,1,7.425-7.426,7.348,7.348,0,0,1,7.426,7.426v48.6a41.064,41.064,0,0,0,82.127,0v-48.6a7.425,7.425,0,1,1,14.85,0Z" transform="translate(-238.935 -366)"/><path class="cls-1" d="M1418.584,539.55a56.473,56.473,0,0,1,56.477-55.577,55.841,55.841,0,0,1,49.727,29.926,7.912,7.912,0,0,1-.226,7.426,7.487,7.487,0,0,1-13.05-.45,41.9,41.9,0,0,0-36.9-22.051c-22.276.45-40.277,17.775-40.951,39.826a40.816,40.816,0,0,0,11.475,30.376,41.552,41.552,0,0,0,66.377-9.226,7.485,7.485,0,0,1,13.05-.449,7.9,7.9,0,0,1,.226,7.425,56.405,56.405,0,0,1-106.2-27.226Z" transform="translate(-238.935 -366)"/><path class="cls-1" d="M1539.183,589.277V420.072a7.538,7.538,0,1,1,15.075,0V589.277a7.538,7.538,0,0,1-15.075,0Z" transform="translate(-238.935 -366)"/><path class="cls-1" d="M1623.334,596.7c-30.6-.451-56.026-26.327-55.576-56.927a56.261,56.261,0,0,1,112.279-4.5v.225a11.007,11.007,0,0,1-3.151,8.55,11.267,11.267,0,0,1-8.55,3.825h-71.777a7.857,7.857,0,0,1-5.4-2.25,8.641,8.641,0,0,1-2.025-5.625,7.458,7.458,0,0,1,7.65-6.975h67.727c-3.6-20.7-21.376-33.976-41.851-33.976a41.206,41.206,0,0,0-28.351,69.977,41.185,41.185,0,0,0,29.7,12.6,41.97,41.97,0,0,0,37.351-23.4,7.167,7.167,0,0,1,6.75-4.275,7.245,7.245,0,0,1,6.3,3.375,7.487,7.487,0,0,1,.449,7.2A56.462,56.462,0,0,1,1624.01,596.7Z" transform="translate(-238.935 -366)"/><path class="cls-1" d="M378.1,423.9c-.09,0-.181,0-.272.006a85.608,85.608,0,0,0-78.567,64.529,20.822,20.822,0,0,0,0,41.124,85.608,85.608,0,0,0,78.565,64.529c.1,0,.188.007.281.007a5.735,5.735,0,0,0,3.97-1.595,5.8,5.8,0,0,0-3.738-9.99,73.6,73.6,0,0,1,0-147.026,5.8,5.8,0,0,0,3.738-9.99A5.738,5.738,0,0,0,378.1,423.9Zm-81.027,92.529a9.215,9.215,0,0,1,0-14.864c-.216,2.477-.325,4.969-.325,7.432S296.856,513.955,297.072,516.432Z" transform="translate(-238.935 -366)"/><path class="cls-1" d="M513.7,453.336A143.453,143.453,0,1,0,524.935,509,142.509,142.509,0,0,0,513.7,453.336Zm-131.76,66.442c-13.232,0-23.5-5.794-23.5-10.778s10.264-10.778,23.5-10.778,23.5,5.794,23.5,10.778S395.168,519.778,381.935,519.778Zm0-33.145c-19.674,0-35.085,9.825-35.085,22.367s15.411,22.367,35.085,22.367c16.483,0,29.993-6.63,33.949-16.573h97.332a131.418,131.418,0,1,1,0-11.588H415.884C411.928,493.263,398.418,486.633,381.935,486.633Z" transform="translate(-238.935 -366)"/></g></svg>