<svg id="Layer_8" data-name="Layer 8" xmlns="http://www.w3.org/2000/svg" viewBox="0 0 221.87 295.25"><defs><style>.cls-1{fill:#5c8449;}.cls-2{fill:#ff4f4f;}.cls-3{fill:#f77534;}</style></defs><path class="cls-1" d="M1042.75,281.14a9.81,9.81,0,0,1-9.78,9.78H969.6a9.8,9.8,0,0,1-9.45-7.32h-.33A101.71,101.71,0,0,0,858.26,388c1.46,54.24,45.89,98.05,100.14,98.79h1.75a9.61,9.61,0,0,1,2.22-4.09l.11-.12a6.25,6.25,0,0,1,.44-.45l.18-.16a5.63,5.63,0,0,1,.45-.38l.22-.17c.15-.11.3-.23.46-.33l.23-.14c.26-.16.52-.31.8-.45s.29-.15.44-.21l.36-.15.48-.18.36-.11.53-.13.35-.08a5.77,5.77,0,0,1,.6-.09l.3,0c.3,0,.61-.05.92-.05h69.53a3.63,3.63,0,0,1,3.62,3.62v.39a3.62,3.62,0,0,1-3.62,3.61h-48.8a3.63,3.63,0,0,0-3.62,3.62v.39a3.63,3.63,0,0,0,3.62,3.62h48.8a3.63,3.63,0,0,1,3.62,3.62v.38a3.63,3.63,0,0,1-3.62,3.62h-48.8a3.63,3.63,0,0,0-3.62,3.62v.38a3.63,3.63,0,0,0,3.62,3.62h48.8a3.63,3.63,0,0,1,3.62,3.62V514a3.62,3.62,0,0,1-3.62,3.61h-48.8a3.63,3.63,0,0,0-3.62,3.62v.39a3.63,3.63,0,0,0,3.62,3.62h48.8a3.62,3.62,0,0,1,3.62,3.61v.39a3.63,3.63,0,0,1-3.62,3.62H969.6c-.32,0-.64,0-1-.05l-.32,0-.62-.09-.37-.09-.53-.14-.39-.13-.48-.18-.39-.17-.44-.21-.39-.22-.39-.24-.38-.26-.35-.26-.37-.31-.31-.28-.36-.35c-.09-.09-.17-.19-.25-.28s-.24-.27-.35-.41l-.21-.28c-.11-.15-.22-.3-.32-.46a2.26,2.26,0,0,1-.16-.26c-.11-.17-.21-.35-.31-.53l-.09-.19a9.65,9.65,0,0,1-1-3.25h-.07a138.95,138.95,0,0,1,0-277.89h.07a9.81,9.81,0,0,1,9.71-8.68H1033a9.81,9.81,0,0,1,9.78,9.78Zm-13.45-4.43a1.77,1.77,0,0,0-1.77-1.77H975a1.77,1.77,0,0,0-1.77,1.77v.51A1.77,1.77,0,0,0,975,279h52.49a1.77,1.77,0,0,0,1.77-1.77Zm0-12.72a1.77,1.77,0,0,0-1.77-1.77H975a1.77,1.77,0,0,0-1.77,1.77v.51a1.77,1.77,0,0,0,1.77,1.77h52.49a1.77,1.77,0,0,0,1.77-1.77Zm0-12.72a1.77,1.77,0,0,0-1.77-1.77H975a1.77,1.77,0,0,0-1.77,1.77v.51a1.77,1.77,0,0,0,1.77,1.77h52.49a1.77,1.77,0,0,0,1.77-1.77Z" transform="translate(-820.88 -237.57)"/><path class="cls-2" d="M960,358.28a26.92,26.92,0,1,0,26.92,26.91A26.95,26.95,0,0,0,960,358.28Zm0,35.16a8.25,8.25,0,1,1,8.24-8.25A8.25,8.25,0,0,1,960,393.44Z" transform="translate(-820.88 -237.57)"/><path class="cls-3" d="M935.6,449.21h0a18.61,18.61,0,0,1,20.16-18.61c1.34.12,2.69.18,4.06.18a45.59,45.59,0,1,0-4-91,18.66,18.66,0,0,1-20.26-18.6h0a18.64,18.64,0,0,1,17-18.6,82.93,82.93,0,1,1,7.22,165.54q-3.63,0-7.19-.31A18.65,18.65,0,0,1,935.6,449.21Z" transform="translate(-820.88 -237.57)"/></svg>