<svg id="LogoType" xmlns="http://www.w3.org/2000/svg" viewBox="0 0 741.69 182.99"><defs><style>.cls-1{fill:#5c8449;}</style></defs><path class="cls-1" d="M652,666.34a78.36,78.36,0,0,0,23.2-3.78l5.28,27.55S666.88,698,645.75,698c-36.78,0-56.59-23-56.59-68.48s19.81-68.1,56.59-68.1c21.13,0,34.71,7.92,34.71,7.92l-5.28,27.54a78.55,78.55,0,0,0-23.2-3.77c-16.6,0-22.07,10.75-22.07,36.22S635.38,666.34,652,666.34Zm71.63-67.16c30.94,0,46,15.09,46,49.23,0,34.53-15.09,49.62-46,49.62s-46.22-15.09-46.22-49.62C677.39,614.27,692.67,599.18,723.61,599.18Zm0,74.51c6.23,0,9.24-4.52,9.24-25.28,0-20.18-3-25.09-9.24-25.09-6.41,0-9.62,4.91-9.62,25.09C714,669.17,717.2,673.69,723.61,673.69Zm94.9-74.51c30.93,0,46,15.09,46,49.23,0,34.53-15.1,49.62-46,49.62s-46.22-15.09-46.22-49.62C772.29,614.27,787.57,599.18,818.51,599.18Zm0,74.51c6.22,0,9.24-4.52,9.24-25.28,0-20.18-3-25.09-9.24-25.09-6.42,0-9.63,4.91-9.63,25.09C808.88,669.17,812.09,673.69,818.51,673.69ZM866.67,565c0-7.36-1.13-10.75-1.13-10.75a99.17,99.17,0,0,1,17.55-1.51c13.77,0,20.18,2.45,20.18,10.94v72.82l6-.57,12.07-34.52h38.3v2.83l-18.87,40.56,20.75,47.35v3.59H922.89l-12.26-38.3h-7.36v38.3h-36.6Zm155.26,101.31a78.39,78.39,0,0,0,23.21-3.78l5.28,27.55s-13.58,7.92-34.71,7.92c-36.79,0-56.6-23-56.6-68.48s19.81-68.1,56.6-68.1c21.13,0,34.71,7.92,34.71,7.92l-5.28,27.54a78.57,78.57,0,0,0-23.21-3.77c-16.6,0-22.07,10.75-22.07,36.22S1005.33,666.34,1021.93,666.34Zm53.77-55.47c9.81,39.62,10.19,63.2,10.19,63.2h.56s2.46-23.77,11.89-63.2l2.26-9.43h38.11V603l-35.28,100.74c-8.49,23.58-17,32.07-41.5,32.07-13.58,0-21.51-4.15-21.51-4.15l3.21-23.2a61.47,61.47,0,0,0,11.88,1.51c8.87,0,11.32-1.51,14.72-11.89l-30.37-86a73.48,73.48,0,0,0-4.34-10.56,114.24,114.24,0,0,1,18.3-1.51C1066.83,599.93,1073.63,602.38,1075.7,610.87Zm96.65-11.69c18.86,0,30.18,6,30.18,6l-4.34,24.72a123.66,123.66,0,0,0-15.28-1.32c-11.69,0-16.6,8.49-16.6,19.8s4.91,20.19,16.42,20.19a124.21,124.21,0,0,0,15.46-1.32l4.34,24.71s-11.32,6-30.18,6c-32.26,0-42.64-25.85-42.64-49.43S1140.09,599.18,1172.35,599.18Zm33.2-34.15c0-7.36-1.13-10.75-1.13-10.75a99.17,99.17,0,0,1,17.55-1.51c13.77,0,20.18,2.45,20.18,10.94V667.85c0,6.22,1.7,8.86,8.3,8.67,2.65,9.25-1.88,21.13-20.75,21.13-16.41,0-24.15-9-24.15-25.65Zm118.91,101.12,5.1,23.39S1316,698,1294.47,698c-37.54,0-47.54-25.47-47.54-49,0-32.07,16.22-49.8,44.71-49.8,32.82,0,42.45,24.33,38.3,56h-47.36c0,12.26,7.74,15.28,20.38,15.28C1313.71,670.49,1324.46,666.15,1324.46,666.15Zm-43-28.49h20.94c.19-10.19-4.53-14.71-10.19-14.71C1283.9,623,1281.45,630.12,1281.45,637.66Z" transform="translate(-589.16 -552.77)"/></svg>