<svg id="Hero" xmlns="http://www.w3.org/2000/svg" viewBox="0 0 1090.26 752.86"><defs><style>.cls-1{fill:#3d6637;}</style></defs><path class="cls-1" d="M415,740c-2.48-50.4,38.47-92.25,87.75-92.25a86.8,86.8,0,0,1,47.93,14.4,7.54,7.54,0,0,1-4,14,9.25,9.25,0,0,1-4.28-1.13,72.28,72.28,0,0,0-112.05,60.3C430.28,776,462.9,808,503.4,808a71.59,71.59,0,0,0,47.93-18.67,9.32,9.32,0,0,1,5.18-2,7.74,7.74,0,0,1,5.17,13.5,87.75,87.75,0,0,1-59.4,22.73C455.48,823.26,417.45,786.36,415,740Z" transform="translate(-414.87 -141.5)"/><path class="cls-1" d="M634.13,711a56.26,56.26,0,1,1-56.25,56.25A56.27,56.27,0,0,1,634.13,711Zm0,15.08a41.29,41.29,0,1,0,41.18,41.17A41.38,41.38,0,0,0,634.13,726.06Z" transform="translate(-414.87 -141.5)"/><path class="cls-1" d="M760.13,711a56.26,56.26,0,1,1-56.25,56.25A56.27,56.27,0,0,1,760.13,711Zm0,15.08a41.29,41.29,0,1,0,41.17,41.17A41.38,41.38,0,0,0,760.13,726.06Z" transform="translate(-414.87 -141.5)"/><path class="cls-1" d="M844.73,646.63V797.84l84.37-85.28a8.32,8.32,0,0,1,5.4-2.25,7.76,7.76,0,0,1,5.18,2.25,7.47,7.47,0,0,1,0,10.57L896,767.46l43.65,43.2a7.35,7.35,0,0,1,2.25,5.4,6.53,6.53,0,0,1-2.25,5.18,6.86,6.86,0,0,1-5.18,2.25,7.35,7.35,0,0,1-5.4-2.25L885.45,778l-42.75,43.2a7.32,7.32,0,0,1-5.4,2.25,6.84,6.84,0,0,1-5.17-2.25c-1.8-1.35-2.25-3.38-2.25-5.4V646.63a7.34,7.34,0,0,1,7.42-7.42A7.49,7.49,0,0,1,844.73,646.63Z" transform="translate(-414.87 -141.5)"/><path class="cls-1" d="M955.43,740c-2.48-50.4,38.47-92.25,87.75-92.25a86.77,86.77,0,0,1,47.92,14.4,7.53,7.53,0,0,1-4,14,9.25,9.25,0,0,1-4.27-1.13,72.28,72.28,0,0,0-112,60.3c0,40.73,32.62,72.68,73.12,72.68a71.61,71.61,0,0,0,47.93-18.67,9.29,9.29,0,0,1,5.17-2,7.74,7.74,0,0,1,5.18,13.5,87.77,87.77,0,0,1-59.4,22.73C995.93,823.26,957.9,786.36,955.43,740Z" transform="translate(-414.87 -141.5)"/><path class="cls-1" d="M1230.15,718.63V842.84h-.22c-2,28.8-26.78,51.52-55.58,51.52a55.73,55.73,0,0,1-55.57-50.4,7.38,7.38,0,0,1,1.8-5.62,7.17,7.17,0,0,1,5.4-2.48,7.37,7.37,0,0,1,7.42,6.75,41.06,41.06,0,0,0,81.9-4.27V805a55.89,55.89,0,0,1-97-37.81v-48.6a7.48,7.48,0,0,1,7.42-7.42,7.34,7.34,0,0,1,7.43,7.42v48.6a41.06,41.06,0,0,0,82.12,0v-48.6a7.43,7.43,0,0,1,14.85,0Z" transform="translate(-414.87 -141.5)"/><path class="cls-1" d="M1243.65,766.33a56.47,56.47,0,0,1,56.48-55.57,55.84,55.84,0,0,1,49.72,29.92,7.91,7.91,0,0,1-.22,7.43,7.49,7.49,0,0,1-13.05-.45,41.89,41.89,0,0,0-36.9-22c-22.28.45-40.28,17.77-41,39.82a40.8,40.8,0,0,0,11.48,30.38,41.55,41.55,0,0,0,66.38-9.23,7.49,7.49,0,0,1,13.05-.44,7.87,7.87,0,0,1,.22,7.42,56.4,56.4,0,0,1-106.2-27.23Z" transform="translate(-414.87 -141.5)"/><path class="cls-1" d="M1364.25,816.06V646.86a7.54,7.54,0,1,1,15.07,0v169.2a7.54,7.54,0,0,1-15.07,0Z" transform="translate(-414.87 -141.5)"/><path class="cls-1" d="M1448.4,823.49c-30.6-.45-56-26.33-55.58-56.93a56.26,56.26,0,0,1,112.28-4.5v.23a11,11,0,0,1-3.15,8.54,11.25,11.25,0,0,1-8.55,3.83h-71.78a7.87,7.87,0,0,1-5.4-2.25,8.64,8.64,0,0,1-2-5.62,7.45,7.45,0,0,1,7.65-7h67.73c-3.6-20.7-21.38-34-41.86-34a41.21,41.21,0,0,0-28.35,70,41.19,41.19,0,0,0,29.7,12.6,42,42,0,0,0,37.36-23.4,7.15,7.15,0,0,1,6.75-4.27,7.24,7.24,0,0,1,6.3,3.37,7.5,7.5,0,0,1,.45,7.2,56.47,56.47,0,0,1-50.86,32.18Z" transform="translate(-414.87 -141.5)"/><path class="cls-1" d="M1168.7,279.83A227.27,227.27,0,1,0,1186.5,368,225.77,225.77,0,0,0,1168.7,279.83Zm-59.36,237.51a211.2,211.2,0,1,1,61.72-157H1013c-5.46-15.62-27-26.43-53-26.43-30.49,0-54.37,15-54.37,34.08s23.88,34.08,54.37,34.08c26,0,47.58-10.81,53-26.43h158A210.13,210.13,0,0,1,1109.34,517.34ZM999.07,368c0,8.87-16.71,18.79-39.07,18.79s-39.07-9.92-39.07-18.79,16.71-18.79,39.07-18.79S999.07,359.13,999.07,368ZM954.18,486.85a119,119,0,0,1,0-237.7A7.65,7.65,0,0,0,959.12,236a7.51,7.51,0,0,0-5.6-2.09,134.75,134.75,0,0,0-124.1,102.76,31.62,31.62,0,0,0,0,62.74,134.75,134.75,0,0,0,124.1,102.76h.37a7.53,7.53,0,0,0,5.23-2.1,7.65,7.65,0,0,0-4.94-13.19Zm-127.65-104a16.31,16.31,0,0,1,0-29.64,134.33,134.33,0,0,0,0,29.64Z" transform="translate(-414.87 -141.5)"/></svg>